<mxfile host="app.diagrams.net" agent="Mozilla/5.0 (Windows NT 10.0; Win64; x64) AppleWebKit/537.36 (KHTML, like Gecko) Chrome/133.0.0.0 Safari/537.36" version="26.0.12" pages="2">
  <diagram name="Page-1" id="e7e014a7-5840-1c2e-5031-d8a46d1fe8dd">
    <mxGraphModel dx="2146" dy="870" grid="1" gridSize="10" guides="1" tooltips="1" connect="1" arrows="1" fold="1" page="1" pageScale="1" pageWidth="1169" pageHeight="826" background="none" math="0" shadow="0">
      <root>
        <mxCell id="0" />
        <mxCell id="1" parent="0" />
        <mxCell id="t8f5dYIEJWG1cA-B_-Ep-47" style="edgeStyle=none;rounded=0;orthogonalLoop=1;jettySize=auto;html=1;" edge="1" parent="1" source="psPjpAKFewSV56Uf9roY-41" target="psPjpAKFewSV56Uf9roY-75">
          <mxGeometry relative="1" as="geometry">
            <Array as="points">
              <mxPoint x="265" y="120" />
            </Array>
          </mxGeometry>
        </mxCell>
        <mxCell id="t8f5dYIEJWG1cA-B_-Ep-48" style="edgeStyle=none;rounded=0;orthogonalLoop=1;jettySize=auto;html=1;entryX=0;entryY=0.5;entryDx=0;entryDy=0;" edge="1" parent="1" source="psPjpAKFewSV56Uf9roY-41" target="psPjpAKFewSV56Uf9roY-76">
          <mxGeometry relative="1" as="geometry">
            <Array as="points">
              <mxPoint x="320" y="200" />
            </Array>
          </mxGeometry>
        </mxCell>
        <mxCell id="t8f5dYIEJWG1cA-B_-Ep-49" style="edgeStyle=none;rounded=0;orthogonalLoop=1;jettySize=auto;html=1;entryX=0;entryY=0.5;entryDx=0;entryDy=0;" edge="1" parent="1" source="psPjpAKFewSV56Uf9roY-41" target="t8f5dYIEJWG1cA-B_-Ep-1">
          <mxGeometry relative="1" as="geometry">
            <Array as="points">
              <mxPoint x="280" y="160" />
            </Array>
          </mxGeometry>
        </mxCell>
        <mxCell id="t8f5dYIEJWG1cA-B_-Ep-50" style="edgeStyle=none;rounded=0;orthogonalLoop=1;jettySize=auto;html=1;entryX=0;entryY=0.5;entryDx=0;entryDy=0;" edge="1" parent="1" source="psPjpAKFewSV56Uf9roY-41" target="t8f5dYIEJWG1cA-B_-Ep-2">
          <mxGeometry relative="1" as="geometry">
            <Array as="points">
              <mxPoint x="320" y="250" />
            </Array>
          </mxGeometry>
        </mxCell>
        <mxCell id="t8f5dYIEJWG1cA-B_-Ep-51" style="edgeStyle=none;rounded=0;orthogonalLoop=1;jettySize=auto;html=1;" edge="1" parent="1" source="psPjpAKFewSV56Uf9roY-41" target="psPjpAKFewSV56Uf9roY-77">
          <mxGeometry relative="1" as="geometry">
            <Array as="points">
              <mxPoint x="320" y="280" />
            </Array>
          </mxGeometry>
        </mxCell>
        <mxCell id="psPjpAKFewSV56Uf9roY-41" value="Khách hàng" style="shape=umlActor;verticalLabelPosition=bottom;verticalAlign=top;html=1;outlineConnect=0;" parent="1" vertex="1">
          <mxGeometry x="250" y="210" width="30" height="60" as="geometry" />
        </mxCell>
        <mxCell id="psPjpAKFewSV56Uf9roY-74" value="Đăng nhập" style="ellipse;whiteSpace=wrap;html=1;" parent="1" vertex="1">
          <mxGeometry x="660" y="180" width="100" height="40" as="geometry" />
        </mxCell>
        <mxCell id="psPjpAKFewSV56Uf9roY-75" value="Đăng ký tài khoản" style="ellipse;whiteSpace=wrap;html=1;" parent="1" vertex="1">
          <mxGeometry x="380" y="100" width="110" height="40" as="geometry" />
        </mxCell>
        <mxCell id="psPjpAKFewSV56Uf9roY-76" value="Xem sản phẩm" style="ellipse;whiteSpace=wrap;html=1;" parent="1" vertex="1">
          <mxGeometry x="380" y="180" width="100" height="40" as="geometry" />
        </mxCell>
        <mxCell id="psPjpAKFewSV56Uf9roY-77" value="Tìm kiếm sản phẩm" style="ellipse;whiteSpace=wrap;html=1;" parent="1" vertex="1">
          <mxGeometry x="375" y="270" width="120" height="40" as="geometry" />
        </mxCell>
        <mxCell id="t8f5dYIEJWG1cA-B_-Ep-26" style="edgeStyle=none;rounded=0;orthogonalLoop=1;jettySize=auto;html=1;dashed=1;entryX=0.063;entryY=0.283;entryDx=0;entryDy=0;entryPerimeter=0;" edge="1" parent="1" source="t8f5dYIEJWG1cA-B_-Ep-1" target="psPjpAKFewSV56Uf9roY-74">
          <mxGeometry relative="1" as="geometry" />
        </mxCell>
        <mxCell id="t8f5dYIEJWG1cA-B_-Ep-1" value="Đặt hàng" style="ellipse;whiteSpace=wrap;html=1;" vertex="1" parent="1">
          <mxGeometry x="510" y="140" width="90" height="40" as="geometry" />
        </mxCell>
        <mxCell id="t8f5dYIEJWG1cA-B_-Ep-27" style="edgeStyle=none;rounded=0;orthogonalLoop=1;jettySize=auto;html=1;dashed=1;entryX=0;entryY=0.5;entryDx=0;entryDy=0;" edge="1" parent="1" source="t8f5dYIEJWG1cA-B_-Ep-2" target="psPjpAKFewSV56Uf9roY-74">
          <mxGeometry relative="1" as="geometry">
            <mxPoint x="671" y="213" as="targetPoint" />
          </mxGeometry>
        </mxCell>
        <mxCell id="t8f5dYIEJWG1cA-B_-Ep-2" value="Xem lịch sử mua" style="ellipse;whiteSpace=wrap;html=1;" vertex="1" parent="1">
          <mxGeometry x="502.5" y="230" width="105" height="40" as="geometry" />
        </mxCell>
        <mxCell id="t8f5dYIEJWG1cA-B_-Ep-3" value="Cập nhật thông tin" style="ellipse;whiteSpace=wrap;html=1;" vertex="1" parent="1">
          <mxGeometry x="495" y="320" width="120" height="40" as="geometry" />
        </mxCell>
        <mxCell id="t8f5dYIEJWG1cA-B_-Ep-52" style="edgeStyle=none;rounded=0;orthogonalLoop=1;jettySize=auto;html=1;entryX=0;entryY=0.5;entryDx=0;entryDy=0;" edge="1" parent="1" source="t8f5dYIEJWG1cA-B_-Ep-4" target="t8f5dYIEJWG1cA-B_-Ep-3">
          <mxGeometry relative="1" as="geometry">
            <Array as="points">
              <mxPoint x="265" y="340" />
            </Array>
          </mxGeometry>
        </mxCell>
        <mxCell id="t8f5dYIEJWG1cA-B_-Ep-54" style="edgeStyle=none;rounded=0;orthogonalLoop=1;jettySize=auto;html=1;" edge="1" parent="1" source="t8f5dYIEJWG1cA-B_-Ep-4" target="t8f5dYIEJWG1cA-B_-Ep-31">
          <mxGeometry relative="1" as="geometry">
            <Array as="points">
              <mxPoint x="320" y="480" />
            </Array>
          </mxGeometry>
        </mxCell>
        <mxCell id="t8f5dYIEJWG1cA-B_-Ep-55" style="edgeStyle=none;rounded=0;orthogonalLoop=1;jettySize=auto;html=1;entryX=0;entryY=0.5;entryDx=0;entryDy=0;" edge="1" parent="1" source="t8f5dYIEJWG1cA-B_-Ep-4" target="t8f5dYIEJWG1cA-B_-Ep-33">
          <mxGeometry relative="1" as="geometry">
            <Array as="points">
              <mxPoint x="320" y="439" />
            </Array>
          </mxGeometry>
        </mxCell>
        <mxCell id="t8f5dYIEJWG1cA-B_-Ep-56" style="edgeStyle=none;rounded=0;orthogonalLoop=1;jettySize=auto;html=1;entryX=0.5;entryY=1;entryDx=0;entryDy=0;" edge="1" parent="1" source="t8f5dYIEJWG1cA-B_-Ep-4" target="t8f5dYIEJWG1cA-B_-Ep-32">
          <mxGeometry relative="1" as="geometry">
            <Array as="points">
              <mxPoint x="320" y="520" />
              <mxPoint x="840" y="520" />
            </Array>
          </mxGeometry>
        </mxCell>
        <mxCell id="t8f5dYIEJWG1cA-B_-Ep-4" value="Admin" style="shape=umlActor;verticalLabelPosition=bottom;verticalAlign=top;html=1;outlineConnect=0;" vertex="1" parent="1">
          <mxGeometry x="250" y="383" width="30" height="60" as="geometry" />
        </mxCell>
        <mxCell id="t8f5dYIEJWG1cA-B_-Ep-45" style="edgeStyle=none;rounded=0;orthogonalLoop=1;jettySize=auto;html=1;entryX=1;entryY=0.5;entryDx=0;entryDy=0;" edge="1" parent="1" source="t8f5dYIEJWG1cA-B_-Ep-5" target="t8f5dYIEJWG1cA-B_-Ep-34">
          <mxGeometry relative="1" as="geometry">
            <Array as="points">
              <mxPoint x="1010" y="350" />
            </Array>
          </mxGeometry>
        </mxCell>
        <mxCell id="t8f5dYIEJWG1cA-B_-Ep-46" style="edgeStyle=none;rounded=0;orthogonalLoop=1;jettySize=auto;html=1;entryX=1;entryY=0.5;entryDx=0;entryDy=0;" edge="1" parent="1" source="t8f5dYIEJWG1cA-B_-Ep-5" target="t8f5dYIEJWG1cA-B_-Ep-32">
          <mxGeometry relative="1" as="geometry">
            <Array as="points">
              <mxPoint x="1000" y="440" />
            </Array>
          </mxGeometry>
        </mxCell>
        <mxCell id="t8f5dYIEJWG1cA-B_-Ep-64" style="edgeStyle=none;rounded=0;orthogonalLoop=1;jettySize=auto;html=1;" edge="1" parent="1" source="t8f5dYIEJWG1cA-B_-Ep-5" target="t8f5dYIEJWG1cA-B_-Ep-35">
          <mxGeometry relative="1" as="geometry">
            <Array as="points">
              <mxPoint x="1035" y="200" />
            </Array>
          </mxGeometry>
        </mxCell>
        <mxCell id="t8f5dYIEJWG1cA-B_-Ep-5" value="Nhân viên" style="shape=umlActor;verticalLabelPosition=bottom;verticalAlign=top;html=1;outlineConnect=0;" vertex="1" parent="1">
          <mxGeometry x="1020" y="383" width="30" height="60" as="geometry" />
        </mxCell>
        <mxCell id="t8f5dYIEJWG1cA-B_-Ep-28" style="edgeStyle=none;rounded=0;orthogonalLoop=1;jettySize=auto;html=1;dashed=1;entryX=0.07;entryY=0.733;entryDx=0;entryDy=0;entryPerimeter=0;" edge="1" parent="1" source="t8f5dYIEJWG1cA-B_-Ep-3" target="psPjpAKFewSV56Uf9roY-74">
          <mxGeometry relative="1" as="geometry">
            <mxPoint x="682" y="217" as="targetPoint" />
          </mxGeometry>
        </mxCell>
        <mxCell id="t8f5dYIEJWG1cA-B_-Ep-57" style="edgeStyle=none;rounded=0;orthogonalLoop=1;jettySize=auto;html=1;exitX=1;exitY=0.5;exitDx=0;exitDy=0;entryX=0.276;entryY=0.855;entryDx=0;entryDy=0;dashed=1;entryPerimeter=0;" edge="1" parent="1" source="t8f5dYIEJWG1cA-B_-Ep-29" target="psPjpAKFewSV56Uf9roY-74">
          <mxGeometry relative="1" as="geometry">
            <Array as="points">
              <mxPoint x="640" y="399" />
            </Array>
          </mxGeometry>
        </mxCell>
        <mxCell id="t8f5dYIEJWG1cA-B_-Ep-29" value="Quản lý nhân viên" style="ellipse;whiteSpace=wrap;html=1;" vertex="1" parent="1">
          <mxGeometry x="385" y="378" width="100" height="42" as="geometry" />
        </mxCell>
        <mxCell id="t8f5dYIEJWG1cA-B_-Ep-58" style="edgeStyle=none;rounded=0;orthogonalLoop=1;jettySize=auto;html=1;entryX=0.5;entryY=1;entryDx=0;entryDy=0;dashed=1;" edge="1" parent="1" source="t8f5dYIEJWG1cA-B_-Ep-31" target="psPjpAKFewSV56Uf9roY-74">
          <mxGeometry relative="1" as="geometry">
            <Array as="points">
              <mxPoint x="710" y="480" />
            </Array>
          </mxGeometry>
        </mxCell>
        <mxCell id="t8f5dYIEJWG1cA-B_-Ep-31" value="Quản lý tài khoản" style="ellipse;whiteSpace=wrap;html=1;" vertex="1" parent="1">
          <mxGeometry x="380" y="460" width="120" height="40" as="geometry" />
        </mxCell>
        <mxCell id="t8f5dYIEJWG1cA-B_-Ep-32" value="Cập nhật sản phẩm" style="ellipse;whiteSpace=wrap;html=1;" vertex="1" parent="1">
          <mxGeometry x="780" y="420" width="120" height="40" as="geometry" />
        </mxCell>
        <mxCell id="t8f5dYIEJWG1cA-B_-Ep-60" style="edgeStyle=none;rounded=0;orthogonalLoop=1;jettySize=auto;html=1;dashed=1;exitX=0.751;exitY=0.062;exitDx=0;exitDy=0;exitPerimeter=0;entryX=0.38;entryY=0.975;entryDx=0;entryDy=0;entryPerimeter=0;" edge="1" parent="1" source="t8f5dYIEJWG1cA-B_-Ep-33" target="psPjpAKFewSV56Uf9roY-74">
          <mxGeometry relative="1" as="geometry" />
        </mxCell>
        <mxCell id="t8f5dYIEJWG1cA-B_-Ep-33" value="Quản lý danh mục" style="ellipse;whiteSpace=wrap;html=1;" vertex="1" parent="1">
          <mxGeometry x="560" y="424" width="130" height="32" as="geometry" />
        </mxCell>
        <mxCell id="t8f5dYIEJWG1cA-B_-Ep-62" style="edgeStyle=none;rounded=0;orthogonalLoop=1;jettySize=auto;html=1;dashed=1;" edge="1" parent="1" source="t8f5dYIEJWG1cA-B_-Ep-34" target="psPjpAKFewSV56Uf9roY-74">
          <mxGeometry relative="1" as="geometry" />
        </mxCell>
        <mxCell id="t8f5dYIEJWG1cA-B_-Ep-34" value="Quản lý đơn hàng" style="ellipse;whiteSpace=wrap;html=1;" vertex="1" parent="1">
          <mxGeometry x="780" y="330" width="120" height="40" as="geometry" />
        </mxCell>
        <mxCell id="t8f5dYIEJWG1cA-B_-Ep-65" style="edgeStyle=none;rounded=0;orthogonalLoop=1;jettySize=auto;html=1;entryX=1;entryY=0.5;entryDx=0;entryDy=0;dashed=1;" edge="1" parent="1" source="t8f5dYIEJWG1cA-B_-Ep-35" target="psPjpAKFewSV56Uf9roY-74">
          <mxGeometry relative="1" as="geometry" />
        </mxCell>
        <mxCell id="t8f5dYIEJWG1cA-B_-Ep-35" value="Hỗ trợ khách hàng" style="ellipse;whiteSpace=wrap;html=1;" vertex="1" parent="1">
          <mxGeometry x="800" y="180" width="120" height="40" as="geometry" />
        </mxCell>
        <mxCell id="t8f5dYIEJWG1cA-B_-Ep-53" style="edgeStyle=none;rounded=0;orthogonalLoop=1;jettySize=auto;html=1;entryX=0;entryY=0.5;entryDx=0;entryDy=0;" edge="1" parent="1" source="t8f5dYIEJWG1cA-B_-Ep-4" target="t8f5dYIEJWG1cA-B_-Ep-29">
          <mxGeometry relative="1" as="geometry">
            <Array as="points">
              <mxPoint x="320" y="400" />
            </Array>
          </mxGeometry>
        </mxCell>
        <mxCell id="t8f5dYIEJWG1cA-B_-Ep-63" style="edgeStyle=none;rounded=0;orthogonalLoop=1;jettySize=auto;html=1;entryX=0.572;entryY=1.015;entryDx=0;entryDy=0;entryPerimeter=0;dashed=1;" edge="1" parent="1" source="t8f5dYIEJWG1cA-B_-Ep-32" target="psPjpAKFewSV56Uf9roY-74">
          <mxGeometry relative="1" as="geometry">
            <Array as="points">
              <mxPoint x="760" y="440" />
            </Array>
          </mxGeometry>
        </mxCell>
      </root>
    </mxGraphModel>
  </diagram>
  <diagram id="mtiRv7fqb3Mk4b6pBMzR" name="Trang-2">
    <mxGraphModel dx="1235" dy="676" grid="1" gridSize="10" guides="1" tooltips="1" connect="1" arrows="1" fold="1" page="1" pageScale="1" pageWidth="827" pageHeight="1169" math="0" shadow="0">
      <root>
        <mxCell id="0" />
        <mxCell id="1" parent="0" />
        <mxCell id="VTeDdulPuaQeQ69k6ycg-41" value="Biểu đồ hoạt động thêm thể loại" style="swimlane;childLayout=stackLayout;resizeParent=1;resizeParentMax=0;startSize=20;html=1;" vertex="1" parent="1">
          <mxGeometry x="200" y="120" width="440" height="680" as="geometry" />
        </mxCell>
        <mxCell id="VTeDdulPuaQeQ69k6ycg-42" value="Admin, nhân viên" style="swimlane;startSize=20;html=1;" vertex="1" parent="VTeDdulPuaQeQ69k6ycg-41">
          <mxGeometry y="20" width="160" height="660" as="geometry" />
        </mxCell>
        <mxCell id="VTeDdulPuaQeQ69k6ycg-50" value="" style="ellipse;html=1;shape=startState;fillColor=#000000;strokeColor=#ff0000;" vertex="1" parent="VTeDdulPuaQeQ69k6ycg-42">
          <mxGeometry x="65" y="40" width="30" height="30" as="geometry" />
        </mxCell>
        <mxCell id="VTeDdulPuaQeQ69k6ycg-51" value="" style="edgeStyle=orthogonalEdgeStyle;html=1;verticalAlign=bottom;endArrow=open;endSize=8;strokeColor=#ff0000;rounded=0;" edge="1" source="VTeDdulPuaQeQ69k6ycg-50" parent="VTeDdulPuaQeQ69k6ycg-42">
          <mxGeometry relative="1" as="geometry">
            <mxPoint x="80" y="130" as="targetPoint" />
          </mxGeometry>
        </mxCell>
        <mxCell id="VTeDdulPuaQeQ69k6ycg-52" value="Activity" style="rounded=1;whiteSpace=wrap;html=1;arcSize=40;fontColor=#000000;fillColor=#ffffc0;strokeColor=#ff0000;" vertex="1" parent="VTeDdulPuaQeQ69k6ycg-42">
          <mxGeometry x="20" y="130" width="120" height="40" as="geometry" />
        </mxCell>
        <mxCell id="VTeDdulPuaQeQ69k6ycg-53" value="" style="edgeStyle=orthogonalEdgeStyle;html=1;verticalAlign=bottom;endArrow=open;endSize=8;strokeColor=#ff0000;rounded=0;" edge="1" source="VTeDdulPuaQeQ69k6ycg-52" parent="VTeDdulPuaQeQ69k6ycg-42">
          <mxGeometry relative="1" as="geometry">
            <mxPoint x="280" y="150" as="targetPoint" />
          </mxGeometry>
        </mxCell>
        <mxCell id="VTeDdulPuaQeQ69k6ycg-56" value="Activity" style="rounded=1;whiteSpace=wrap;html=1;arcSize=40;fontColor=#000000;fillColor=#ffffc0;strokeColor=#ff0000;" vertex="1" parent="VTeDdulPuaQeQ69k6ycg-42">
          <mxGeometry x="20" y="210" width="120" height="40" as="geometry" />
        </mxCell>
        <mxCell id="VTeDdulPuaQeQ69k6ycg-60" value="Activity" style="rounded=1;whiteSpace=wrap;html=1;arcSize=40;fontColor=#000000;fillColor=#ffffc0;strokeColor=#ff0000;" vertex="1" parent="VTeDdulPuaQeQ69k6ycg-42">
          <mxGeometry x="20" y="310" width="120" height="40" as="geometry" />
        </mxCell>
        <mxCell id="VTeDdulPuaQeQ69k6ycg-61" value="" style="edgeStyle=orthogonalEdgeStyle;html=1;verticalAlign=bottom;endArrow=open;endSize=8;strokeColor=#ff0000;rounded=0;" edge="1" source="VTeDdulPuaQeQ69k6ycg-60" parent="VTeDdulPuaQeQ69k6ycg-42">
          <mxGeometry relative="1" as="geometry">
            <mxPoint x="79.74" y="380" as="targetPoint" />
            <mxPoint x="80" y="353" as="sourcePoint" />
          </mxGeometry>
        </mxCell>
        <mxCell id="VTeDdulPuaQeQ69k6ycg-62" value="Activity" style="rounded=1;whiteSpace=wrap;html=1;arcSize=40;fontColor=#000000;fillColor=#ffffc0;strokeColor=#ff0000;" vertex="1" parent="VTeDdulPuaQeQ69k6ycg-42">
          <mxGeometry x="20" y="380" width="120" height="40" as="geometry" />
        </mxCell>
        <mxCell id="VTeDdulPuaQeQ69k6ycg-63" value="" style="edgeStyle=orthogonalEdgeStyle;html=1;verticalAlign=bottom;endArrow=open;endSize=8;strokeColor=#ff0000;rounded=0;" edge="1" source="VTeDdulPuaQeQ69k6ycg-62" parent="VTeDdulPuaQeQ69k6ycg-42">
          <mxGeometry relative="1" as="geometry">
            <mxPoint x="270" y="400" as="targetPoint" />
          </mxGeometry>
        </mxCell>
        <mxCell id="VTeDdulPuaQeQ69k6ycg-64" style="edgeStyle=none;rounded=0;orthogonalLoop=1;jettySize=auto;html=1;entryX=0.5;entryY=1;entryDx=0;entryDy=0;" edge="1" parent="VTeDdulPuaQeQ69k6ycg-42" source="VTeDdulPuaQeQ69k6ycg-60" target="VTeDdulPuaQeQ69k6ycg-60">
          <mxGeometry relative="1" as="geometry" />
        </mxCell>
        <mxCell id="VTeDdulPuaQeQ69k6ycg-57" value="" style="edgeStyle=orthogonalEdgeStyle;html=1;verticalAlign=bottom;endArrow=open;endSize=8;strokeColor=#ff0000;rounded=0;" edge="1" source="VTeDdulPuaQeQ69k6ycg-56" parent="VTeDdulPuaQeQ69k6ycg-41">
          <mxGeometry relative="1" as="geometry">
            <mxPoint x="330" y="280" as="targetPoint" />
          </mxGeometry>
        </mxCell>
        <mxCell id="VTeDdulPuaQeQ69k6ycg-43" value="Hệ thống" style="swimlane;startSize=20;html=1;" vertex="1" parent="VTeDdulPuaQeQ69k6ycg-41">
          <mxGeometry x="160" y="20" width="280" height="660" as="geometry" />
        </mxCell>
        <mxCell id="VTeDdulPuaQeQ69k6ycg-58" value="Activity" style="rounded=1;whiteSpace=wrap;html=1;arcSize=40;fontColor=#000000;fillColor=#ffffc0;strokeColor=#ff0000;" vertex="1" parent="VTeDdulPuaQeQ69k6ycg-43">
          <mxGeometry x="110" y="260" width="120" height="40" as="geometry" />
        </mxCell>
        <mxCell id="VTeDdulPuaQeQ69k6ycg-74" style="edgeStyle=none;rounded=0;orthogonalLoop=1;jettySize=auto;html=1;strokeColor=#FF3333;" edge="1" parent="VTeDdulPuaQeQ69k6ycg-43" source="VTeDdulPuaQeQ69k6ycg-65" target="VTeDdulPuaQeQ69k6ycg-71">
          <mxGeometry relative="1" as="geometry" />
        </mxCell>
        <mxCell id="VTeDdulPuaQeQ69k6ycg-65" value="Activity" style="rounded=1;whiteSpace=wrap;html=1;arcSize=40;fontColor=#000000;fillColor=#ffffc0;strokeColor=#ff0000;" vertex="1" parent="VTeDdulPuaQeQ69k6ycg-43">
          <mxGeometry x="110" y="380" width="120" height="40" as="geometry" />
        </mxCell>
        <mxCell id="VTeDdulPuaQeQ69k6ycg-71" value="Condition" style="rhombus;whiteSpace=wrap;html=1;fontColor=#000000;fillColor=#ffffc0;strokeColor=#ff0000;" vertex="1" parent="VTeDdulPuaQeQ69k6ycg-43">
          <mxGeometry x="130" y="460" width="80" height="40" as="geometry" />
        </mxCell>
        <mxCell id="VTeDdulPuaQeQ69k6ycg-59" value="" style="edgeStyle=orthogonalEdgeStyle;html=1;verticalAlign=bottom;endArrow=open;endSize=8;strokeColor=#ff0000;rounded=0;" edge="1" source="VTeDdulPuaQeQ69k6ycg-58" parent="VTeDdulPuaQeQ69k6ycg-41" target="VTeDdulPuaQeQ69k6ycg-60">
          <mxGeometry relative="1" as="geometry">
            <mxPoint x="330" y="350" as="targetPoint" />
          </mxGeometry>
        </mxCell>
        <mxCell id="VTeDdulPuaQeQ69k6ycg-54" value="Activity" style="rounded=1;whiteSpace=wrap;html=1;arcSize=40;fontColor=#000000;fillColor=#ffffc0;strokeColor=#ff0000;" vertex="1" parent="1">
          <mxGeometry x="480" y="270" width="120" height="40" as="geometry" />
        </mxCell>
        <mxCell id="VTeDdulPuaQeQ69k6ycg-55" value="" style="edgeStyle=orthogonalEdgeStyle;html=1;verticalAlign=bottom;endArrow=open;endSize=8;strokeColor=#ff0000;rounded=0;entryX=0.5;entryY=0;entryDx=0;entryDy=0;" edge="1" source="VTeDdulPuaQeQ69k6ycg-54" parent="1" target="VTeDdulPuaQeQ69k6ycg-56">
          <mxGeometry relative="1" as="geometry">
            <mxPoint x="280" y="360" as="targetPoint" />
            <Array as="points">
              <mxPoint x="540" y="330" />
              <mxPoint x="280" y="330" />
            </Array>
          </mxGeometry>
        </mxCell>
        <mxCell id="VTeDdulPuaQeQ69k6ycg-72" value="no" style="edgeStyle=orthogonalEdgeStyle;html=1;align=left;verticalAlign=bottom;endArrow=open;endSize=8;strokeColor=#ff0000;rounded=0;" edge="1" source="VTeDdulPuaQeQ69k6ycg-71" parent="1">
          <mxGeometry x="-1" relative="1" as="geometry">
            <mxPoint x="530" y="700" as="targetPoint" />
          </mxGeometry>
        </mxCell>
        <mxCell id="VTeDdulPuaQeQ69k6ycg-73" value="yes" style="edgeStyle=orthogonalEdgeStyle;html=1;align=left;verticalAlign=top;endArrow=open;endSize=8;strokeColor=#ff0000;rounded=0;" edge="1" source="VTeDdulPuaQeQ69k6ycg-71" parent="1">
          <mxGeometry x="-1" relative="1" as="geometry">
            <mxPoint x="280" y="620" as="targetPoint" />
          </mxGeometry>
        </mxCell>
      </root>
    </mxGraphModel>
  </diagram>
</mxfile>
